<svg width="355" height="355" viewBox="0 0 355 355" fill="none" xmlns="http://www.w3.org/2000/svg">
<g opacity="0.2">
<path d="M34.5138 256.685C23.4299 247.553 19.7222 215.983 19.7222 200.496C19.7222 186.74 25.2937 149.637 34.3117 140.624C34.3117 140.624 47.4171 135.043 54.2361 140.624C76.5665 158.917 121.578 200.851 177.52 140.624C177.52 140.624 264.189 181.755 287.57 187.692C327.719 197.883 329.07 208.005 329.07 221.328C329.07 263.987 279.35 258.504 246.188 256.69C227.91 255.689 54.877 257.799 34.5138 256.69" fill="#9B9B9A"/>
<path d="M34.5139 226.234C34.5139 226.234 114.063 218.695 160.223 231.376C206.383 244.058 299.98 232.51 299.98 232.51L325.954 232.382C325.954 232.382 321.339 260.93 298.723 260.93C276.106 260.93 29.5834 252.089 29.5834 252.089C29.5834 252.089 12.9082 228.965 34.5139 226.229V226.234Z" fill="#D0CFCE"/>
<path d="M34.5138 256.685C23.4299 247.553 19.7222 215.983 19.7222 200.496C19.7222 186.74 25.2937 149.637 34.3117 140.624C34.3117 140.624 47.4171 135.043 54.2361 140.624C76.5665 158.917 121.578 200.851 177.52 140.624C177.52 140.624 264.189 181.755 287.57 187.692C327.719 197.883 329.07 208.005 329.07 221.328C329.07 263.987 279.35 258.504 246.188 256.69C227.91 255.689 54.877 257.799 34.5138 256.69" stroke="black" stroke-width="2" stroke-miterlimit="10" stroke-linecap="round" stroke-linejoin="round"/>
<path d="M224.468 186.183L207.054 206.571M39.4443 230.829C39.4443 230.829 114.063 218.7 160.223 231.371C206.383 244.043 299.98 237.436 299.98 237.436L39.4443 230.829ZM199.401 177.293L174.394 206.571L199.401 177.293Z" stroke="black" stroke-width="2" stroke-miterlimit="10" stroke-linecap="round" stroke-linejoin="round"/>
<path d="M34.5138 256.685C23.4299 247.553 19.7222 215.983 19.7222 200.496C19.7222 186.74 25.2937 149.637 34.3117 140.624C34.3117 140.624 47.4171 135.043 54.2361 140.624C76.5665 158.917 121.578 200.851 177.52 140.624C177.52 140.624 264.189 181.755 287.57 187.692C327.719 197.883 329.07 208.005 329.07 221.328C329.07 263.987 279.35 258.504 246.188 256.69C227.91 255.689 54.877 257.799 34.5138 256.69" stroke="black" stroke-width="2" stroke-miterlimit="10" stroke-linecap="round" stroke-linejoin="round"/>
</g>
</svg>
