<svg width="9" height="8" viewBox="0 0 9 8" fill="none" xmlns="http://www.w3.org/2000/svg">
<path fill-rule="evenodd" clip-rule="evenodd" d="M0.76212 7.07836C0.657488 6.95367 0.604428 6.7944 0.614613 6.6356C0.624798 6.4768 0.697394 6.33147 0.81643 6.23159L6.01652 1.86819L2.396 1.4674C2.31759 1.4587 2.24094 1.43458 2.17044 1.39642C2.09993 1.35825 2.03694 1.30679 1.98506 1.24497C1.93319 1.18315 1.89345 1.11218 1.8681 1.03611C1.84276 0.960045 1.83232 0.880373 1.83737 0.801644C1.84242 0.722914 1.86286 0.646669 1.89753 0.57726C1.9322 0.507853 1.98042 0.446642 2.03944 0.397122C2.09846 0.347603 2.16711 0.310744 2.24148 0.288652C2.31586 0.26656 2.3945 0.259666 2.47291 0.268365L7.53296 0.829703C7.6114 0.838306 7.6881 0.862364 7.75865 0.900499C7.82921 0.938633 7.89224 0.990096 7.94413 1.05194C7.99602 1.11378 8.03576 1.18479 8.06106 1.2609C8.08637 1.337 8.09674 1.41671 8.09159 1.49546L7.76573 6.57611C7.76068 6.65484 7.74024 6.73109 7.70557 6.80049C7.6709 6.8699 7.62268 6.93111 7.56366 6.98063C7.50465 7.03015 7.43599 7.06701 7.36162 7.0891C7.28724 7.11119 7.20861 7.11809 7.1302 7.10939C6.97184 7.09182 6.82402 7.01181 6.71925 6.88696C6.66738 6.82514 6.62764 6.75417 6.6023 6.6781C6.57696 6.60204 6.56651 6.52236 6.57156 6.44363L6.80556 2.80852L1.60546 7.17192C1.48643 7.2718 1.3307 7.31806 1.17254 7.30051C1.01439 7.28297 0.866752 7.20306 0.76212 7.07836Z" fill="#757575"/>
</svg>
