<svg width="56" height="59" viewBox="0 0 56 59" fill="none" xmlns="http://www.w3.org/2000/svg">
<path fill-rule="evenodd" clip-rule="evenodd" d="M3.5 29.5C3.5 36.3459 6.08124 42.9114 10.6759 47.7522C15.2705 52.593 21.5022 55.3125 28 55.3125C34.4978 55.3125 40.7295 52.593 45.3241 47.7522C49.9188 42.9114 52.5 36.3459 52.5 29.5C52.5 22.6541 49.9188 16.0886 45.3241 11.2478C40.7295 6.40702 34.4978 3.6875 28 3.6875C21.5022 3.6875 15.2705 6.40702 10.6759 11.2478C6.08124 16.0886 3.5 22.6541 3.5 29.5ZM56 29.5C56 37.3239 53.05 44.8273 47.799 50.3596C42.548 55.892 35.4261 59 28 59C20.5739 59 13.452 55.892 8.20101 50.3596C2.94999 44.8273 0 37.3239 0 29.5C0 21.6761 2.94999 14.1727 8.20101 8.64035C13.452 3.10803 20.5739 0 28 0C35.4261 0 42.548 3.10803 47.799 8.64035C53.05 14.1727 56 21.6761 56 29.5ZM15.75 27.6562C15.2859 27.6562 14.8408 27.8505 14.5126 28.1963C14.1844 28.542 14 29.011 14 29.5C14 29.989 14.1844 30.458 14.5126 30.8037C14.8408 31.1495 15.2859 31.3438 15.75 31.3438H36.0255L28.511 39.2571C28.3483 39.4286 28.2192 39.6321 28.1312 39.856C28.0431 40.08 27.9978 40.3201 27.9978 40.5625C27.9978 40.8049 28.0431 41.045 28.1312 41.269C28.2192 41.4929 28.3483 41.6964 28.511 41.8679C28.6737 42.0393 28.8669 42.1753 29.0795 42.2681C29.292 42.3608 29.5199 42.4086 29.75 42.4086C29.9801 42.4086 30.208 42.3608 30.4205 42.2681C30.6331 42.1753 30.8263 42.0393 30.989 41.8679L41.489 30.8054C41.652 30.6341 41.7813 30.4306 41.8695 30.2066C41.9577 29.9827 42.0031 29.7425 42.0031 29.5C42.0031 29.2575 41.9577 29.0173 41.8695 28.7934C41.7813 28.5694 41.652 28.3659 41.489 28.1946L30.989 17.1321C30.8263 16.9607 30.6331 16.8247 30.4205 16.7319C30.208 16.6392 29.9801 16.5914 29.75 16.5914C29.5199 16.5914 29.292 16.6392 29.0795 16.7319C28.8669 16.8247 28.6737 16.9607 28.511 17.1321C28.3483 17.3035 28.2192 17.5071 28.1312 17.731C28.0431 17.955 27.9978 18.1951 27.9978 18.4375C27.9978 18.6799 28.0431 18.92 28.1312 19.144C28.2192 19.3679 28.3483 19.5715 28.511 19.7429L36.0255 27.6562H15.75Z" fill="white"/>
</svg>
