<svg width="56" height="58" viewBox="0 0 56 58" fill="none" xmlns="http://www.w3.org/2000/svg">
<path fill-rule="evenodd" clip-rule="evenodd" d="M52.5 29C52.5 35.7299 49.9188 42.1841 45.3241 46.9428C40.7295 51.7016 34.4978 54.375 28 54.375C21.5022 54.375 15.2705 51.7016 10.6759 46.9428C6.08125 42.1841 3.5 35.7299 3.5 29C3.5 22.2701 6.08125 15.8159 10.6759 11.0572C15.2705 6.29843 21.5022 3.625 28 3.625C34.4978 3.625 40.7295 6.29843 45.3241 11.0572C49.9188 15.8159 52.5 22.2701 52.5 29ZM0 29C0 36.6913 2.94999 44.0675 8.20101 49.5061C13.452 54.9447 20.5739 58 28 58C35.4261 58 42.548 54.9447 47.799 49.5061C53.05 44.0675 56 36.6913 56 29C56 21.3087 53.05 13.9325 47.799 8.4939C42.548 3.05535 35.4261 0 28 0C20.5739 0 13.452 3.05535 8.20101 8.4939C2.94999 13.9325 0 21.3087 0 29ZM40.25 27.1875C40.7141 27.1875 41.1592 27.3785 41.4874 27.7184C41.8156 28.0583 42 28.5193 42 29C42 29.4807 41.8156 29.9417 41.4874 30.2816C41.1592 30.6215 40.7141 30.8125 40.25 30.8125H19.9745L27.489 38.5918C27.6517 38.7603 27.7808 38.9603 27.8688 39.1805C27.9569 39.4007 28.0022 39.6367 28.0022 39.875C28.0022 40.1133 27.9569 40.3493 27.8688 40.5695C27.7808 40.7897 27.6517 40.9897 27.489 41.1582C27.3263 41.3268 27.1331 41.4604 26.9205 41.5516C26.708 41.6428 26.4801 41.6898 26.25 41.6898C26.0199 41.6898 25.792 41.6428 25.5795 41.5516C25.3669 41.4604 25.1737 41.3268 25.011 41.1582L14.511 30.2833C14.348 30.1149 14.2187 29.9149 14.1305 29.6947C14.0423 29.4745 13.9969 29.2384 13.9969 29C13.9969 28.7616 14.0423 28.5255 14.1305 28.3053C14.2187 28.0851 14.348 27.8851 14.511 27.7167L25.011 16.8417C25.1737 16.6732 25.3669 16.5396 25.5795 16.4484C25.792 16.3572 26.0199 16.3102 26.25 16.3102C26.4801 16.3102 26.708 16.3572 26.9205 16.4484C27.1331 16.5396 27.3263 16.6732 27.489 16.8417C27.6517 17.0103 27.7808 17.2103 27.8688 17.4305C27.9569 17.6507 28.0022 17.8867 28.0022 18.125C28.0022 18.3633 27.9569 18.5993 27.8688 18.8195C27.7808 19.0397 27.6517 19.2397 27.489 19.4083L19.9745 27.1875H40.25Z" fill="white"/>
</svg>
