<svg width="30" height="30" viewBox="0 0 30 30" fill="none" xmlns="http://www.w3.org/2000/svg">
<path d="M12.3213 30C11.8951 30 11.4863 29.8244 11.1849 29.5118C10.8835 29.1993 10.7142 28.7754 10.7142 28.3333C10.7142 27.8913 10.8835 27.4674 11.1849 27.1548C11.4863 26.8423 11.8951 26.6667 12.3213 26.6667C12.7475 26.6667 13.1563 26.8423 13.4577 27.1548C13.7591 27.4674 13.9284 27.8913 13.9284 28.3333C13.9284 28.7754 13.7591 29.1993 13.4577 29.5118C13.1563 29.8244 12.7475 30 12.3213 30ZM23.0355 30C22.6092 30 22.2005 29.8244 21.8991 29.5118C21.5977 29.1993 21.4283 28.7754 21.4283 28.3333C21.4283 27.8913 21.5977 27.4674 21.8991 27.1548C22.2005 26.8423 22.6092 26.6667 23.0355 26.6667C23.4617 26.6667 23.8705 26.8423 24.1719 27.1548C24.4733 27.4674 24.6426 27.8913 24.6426 28.3333C24.6426 28.7754 24.4733 29.1993 24.1719 29.5118C23.8705 29.8244 23.4617 30 23.0355 30ZM1.07142 2.22222C0.78726 2.22222 0.51474 2.10516 0.313811 1.89679C0.112881 1.68841 0 1.4058 0 1.11111C0 0.816426 0.112881 0.533811 0.313811 0.325437C0.51474 0.117063 0.78726 0 1.07142 0H6.4285C6.6761 0.000155071 6.916 0.0892358 7.10742 0.252096C7.29884 0.414957 7.42996 0.641544 7.47849 0.893333L8.59277 6.66667H28.9283C29.0881 6.66662 29.2459 6.70365 29.3901 6.77505C29.5344 6.84646 29.6614 6.95042 29.7618 7.07933C29.8623 7.20823 29.9337 7.35882 29.9708 7.52004C30.0079 7.68127 30.0097 7.84906 29.9761 8.01111L26.7619 23.5667C26.7104 23.8152 26.5783 24.0379 26.3876 24.1977C26.1969 24.3574 25.9591 24.4445 25.714 24.4444H10.7142C10.4666 24.4443 10.2267 24.3552 10.0353 24.1923C9.84383 24.0295 9.71271 23.8029 9.66418 23.5511L5.54994 2.22222H1.07142ZM11.5927 22.2222H24.8483L27.604 8.88889H9.02133L11.5927 22.2222Z" fill="black"/>
</svg>
