<svg width="29" height="26" viewBox="0 0 29 26" fill="none" xmlns="http://www.w3.org/2000/svg">
<path d="M25.6348 2.19669C24.938 1.49992 24.1108 0.947281 23.2003 0.570362C22.2899 0.193443 21.3141 -0.000369493 20.3287 5.28828e-07C19.3433 0.000370551 18.3676 0.194916 17.4575 0.572519C16.5473 0.950122 15.7205 1.50338 15.0242 2.20067L14.1154 3.1206L13.2141 2.20267L13.2082 2.19681C12.5118 1.50036 11.685 0.947912 10.775 0.570998C9.86509 0.194084 8.88981 8.92652e-05 7.90489 8.92652e-05C6.91998 8.92652e-05 5.9447 0.194084 5.03476 0.570998C4.12481 0.947912 3.29801 1.50036 2.60157 2.19681L2.19669 2.60169C0.790173 4.00821 0 5.91586 0 7.90498C0 9.8941 0.790173 11.8017 2.19669 13.2083L12.8826 23.8941L14.0893 25.1584L14.1181 25.1296L14.1494 25.1608L15.28 23.9679L26.0397 13.2081C27.4441 11.8005 28.2328 9.89322 28.2328 7.9048C28.2328 5.91638 27.4441 4.00915 26.0397 2.60151L25.6348 2.19669ZM24.7136 11.8823L14.1181 22.478L3.52243 11.8823C2.46755 10.8274 1.87492 9.39667 1.87492 7.90483C1.87492 6.413 2.46755 4.98226 3.52243 3.92737L3.92737 3.52249C4.98175 2.46812 6.41162 1.87554 7.90272 1.87498C9.39383 1.87442 10.8241 2.46593 11.8793 3.5195L14.1113 5.79218L16.3539 3.52249C16.8763 3.00016 17.4964 2.58582 18.1788 2.30313C18.8613 2.02045 19.5927 1.87495 20.3314 1.87495C21.0701 1.87495 21.8016 2.02045 22.484 2.30313C23.1665 2.58582 23.7866 3.00016 24.3089 3.52249L24.7138 3.92731C25.7671 4.98307 26.3586 6.41353 26.3586 7.90485C26.3585 9.39618 25.7669 10.8266 24.7136 11.8823Z" fill="black"/>
</svg>
