<svg width="25" height="25" viewBox="0 0 27 24" fill="none" xmlns="http://www.w3.org/2000/svg">
<path d="M23.7101 2.02095C23.0669 1.3835 22.3033 0.877918 21.4628 0.533091C20.6224 0.188264 19.7217 0.0109535 18.8121 0.011292C17.9025 0.0116305 17.0019 0.189612 16.1617 0.535064C15.3216 0.880516 14.5583 1.38667 13.9156 2.02459L13.0767 2.86619L12.2447 2.02641L12.2393 2.02105C11.5964 1.38391 10.8332 0.878494 9.99329 0.533672C9.15334 0.188851 8.25308 0.0113732 7.34392 0.0113732C6.43476 0.0113732 5.5345 0.188851 4.69455 0.533672C3.85459 0.878494 3.09139 1.38391 2.44852 2.02105L2.07478 2.39146C0.776452 3.67823 0.0470581 5.42345 0.0470581 7.24321C0.0470581 9.06297 0.776452 10.8082 2.07478 12.095L11.9388 21.8709L13.0527 23.0276L13.0792 23.0012L13.1081 23.0298L14.1517 21.9385L24.0838 12.0948C25.3802 10.807 26.1082 9.06217 26.1082 7.24305C26.1082 5.42393 25.3802 3.67909 24.0838 2.3913L23.7101 2.02095ZM22.8597 10.8819L13.0792 20.5754L3.29855 10.8819C2.32481 9.91681 1.77776 8.60789 1.77776 7.24308C1.77776 5.87826 2.32481 4.56935 3.29855 3.60427L3.67234 3.23386C4.64562 2.26927 5.96551 1.72714 7.34192 1.72663C8.71833 1.72612 10.0386 2.26726 11.0126 3.23113L13.073 5.3103L15.1431 3.23386C15.6252 2.756 16.1976 2.37694 16.8276 2.11833C17.4576 1.85971 18.1328 1.7266 18.8146 1.7266C19.4965 1.7266 20.1717 1.85971 20.8017 2.11833C21.4316 2.37694 22.004 2.756 22.4862 3.23386L22.8599 3.60422C23.8322 4.57009 24.3782 5.87875 24.3782 7.24309C24.3781 8.60744 23.832 9.91607 22.8597 10.8819Z" fill="#A5A4A3"/>
</svg>
