<svg width="50" height="50" viewBox="0 0 27 53" fill="none" xmlns="http://www.w3.org/2000/svg">
<path d="M26.064 1.39318C26.6875 2.07375 26.9993 2.87954 26.9993 3.81054C26.9993 4.73974 26.6875 5.54462 26.064 6.22518L7.79425 26.1657L26.1263 46.1743C26.7083 46.8094 26.9993 47.6034 26.9993 48.5562C26.9993 49.509 26.6875 50.3257 26.064 51.0063C25.4404 51.6868 24.7021 52.0271 23.8491 52.0271C22.9978 52.0271 22.2604 51.6868 21.6368 51.0063L0.685898 28.0713C0.436481 27.799 0.259399 27.5041 0.154644 27.1865C0.0515517 26.8689 5.59039e-06 26.5287 5.56137e-06 26.1657C5.53234e-06 25.8027 0.0515516 25.4624 0.154644 25.1448C0.259399 24.8273 0.436481 24.5323 0.685898 24.2601L21.6992 1.32513C22.2811 0.689934 22.9978 0.372338 23.8491 0.372338C24.7021 0.372338 25.4404 0.71262 26.064 1.39318Z" fill="white"/>
</svg>
