<svg width="22" height="22" viewBox="0 0 30 30" fill="none" xmlns="http://www.w3.org/2000/svg">
<path d="M30 15.0044C30.0016 12.5082 29.3798 10.0511 28.1909 7.85591C27.0021 5.66075 25.2838 3.797 23.192 2.43372C21.1002 1.07044 18.7011 0.250765 16.2122 0.0490442C13.7232 -0.152676 11.2233 0.269939 8.93914 1.27856C6.65497 2.28717 4.65882 3.84988 3.13176 5.82493C1.6047 7.79999 0.595041 10.1249 0.194363 12.5888C-0.206315 15.0527 0.0146665 17.5775 0.837264 19.9344C1.65986 22.2913 3.05805 24.4056 4.905 26.0856C4.94294 26.1329 4.98858 26.1734 5.04 26.2056C7.78454 28.6496 11.3319 30 15.0075 30C18.6831 30 22.2305 28.6496 24.975 26.2056L25.095 26.0856C26.6418 24.6837 27.8774 22.9733 28.7222 21.0647C29.5671 19.156 30.0024 17.0916 30 15.0044ZM1.2 15.0044C1.19982 12.7371 1.7587 10.5046 2.8272 8.50459C3.8957 6.50457 5.44087 4.79866 7.32599 3.5378C9.21111 2.27695 11.3781 1.50002 13.6351 1.27576C15.8921 1.05151 18.1697 1.38684 20.2662 2.25208C22.3627 3.11733 24.2135 4.48581 25.655 6.23644C27.0964 7.98708 28.0839 10.0659 28.5302 12.2889C28.9765 14.512 28.8678 16.8107 28.2137 18.9818C27.5596 21.1528 26.3802 23.1292 24.78 24.7361C23.2905 22.2415 20.9019 20.4118 18.105 19.6228C19.4039 18.9306 20.434 17.8241 21.0316 16.4794C21.6292 15.1346 21.76 13.6287 21.4031 12.2012C21.0462 10.7736 20.2221 9.50626 19.0619 8.60066C17.9017 7.69505 16.472 7.20314 15 7.20314C13.528 7.20314 12.0983 7.69505 10.9381 8.60066C9.77789 9.50626 8.95384 10.7736 8.59694 12.2012C8.24003 13.6287 8.37077 15.1346 8.96836 16.4794C9.56594 17.8241 10.5961 18.9306 11.895 19.6228C9.09807 20.4118 6.70954 22.2415 5.22 24.7361C2.64707 22.1501 1.20192 18.6517 1.2 15.0044ZM15 19.203C13.932 19.203 12.8879 18.8864 11.9999 18.2932C11.1119 17.7001 10.4198 16.857 10.011 15.8706C9.60233 14.8842 9.4954 13.7989 9.70376 12.7517C9.91212 11.7046 10.4264 10.7427 11.1816 9.9878C11.9368 9.23286 12.899 8.71874 13.9465 8.51045C14.994 8.30216 16.0798 8.40906 17.0665 8.81763C18.0532 9.2262 18.8966 9.9181 19.4899 10.8058C20.0833 11.6935 20.4 12.7372 20.4 13.8049C20.4 15.2365 19.8311 16.6096 18.8184 17.6219C17.8057 18.6343 16.4322 19.203 15 19.203ZM6.135 25.5608C7.0259 23.9958 8.31546 22.6947 9.87256 21.7895C11.4297 20.8844 13.1988 20.4075 15 20.4075C16.8012 20.4075 18.5703 20.8844 20.1274 21.7895C21.6845 22.6947 22.9741 23.9958 23.865 25.5608C21.3843 27.651 18.2444 28.7974 15 28.7974C11.7556 28.7974 8.61568 27.651 6.135 25.5608Z" fill="black"/>
</svg>
