<svg width="50" height="50" viewBox="0 0 27 53" fill="none" xmlns="http://www.w3.org/2000/svg">
<path d="M0.935309 51.0062C0.31177 50.3257 0 49.5199 0 48.5889C0 47.6597 0.31177 46.8548 0.935309 46.1742L19.205 26.2337L0.872955 6.22516C0.290985 5.58997 0 4.79598 0 3.84319C0 2.8904 0.31177 2.07372 0.935309 1.39316C1.55885 0.712596 2.29712 0.372314 3.15012 0.372314C4.00146 0.372314 4.7389 0.712596 5.36244 1.39316L26.3134 24.3281C26.5628 24.6004 26.7399 24.8953 26.8446 25.2129C26.9477 25.5305 26.9993 25.8708 26.9993 26.2337C26.9993 26.5967 26.9477 26.937 26.8446 27.2546C26.7399 27.5722 26.5628 27.8671 26.3134 28.1393L5.30008 51.0743C4.71811 51.7095 4.00146 52.0271 3.15012 52.0271C2.29712 52.0271 1.55885 51.6868 0.935309 51.0062Z" fill="white"/>
</svg>
