<svg width="26" height="26" viewBox="0 0 26 26" fill="none" xmlns="http://www.w3.org/2000/svg">
<path d="M21.4427 20.1189L25.1045 23.7789C25.2753 23.9557 25.3698 24.1925 25.3677 24.4383C25.3655 24.6842 25.2669 24.9193 25.0931 25.0931C24.9193 25.2669 24.6842 25.3655 24.4383 25.3677C24.1925 25.3698 23.9557 25.2753 23.7789 25.1045L20.117 21.4427C17.7241 23.4929 14.63 24.5365 11.4842 24.3547C8.33831 24.1728 5.38515 22.7796 3.24437 20.4673C1.10359 18.1551 -0.0583856 15.1035 0.00225987 11.9529C0.0629053 8.80241 1.34146 5.79782 3.56964 3.56964C5.79782 1.34146 8.80241 0.0629053 11.9529 0.00225987C15.1035 -0.0583856 18.1551 1.10359 20.4673 3.24437C22.7796 5.38515 24.1728 8.33831 24.3547 11.4842C24.5365 14.63 23.4929 17.7241 21.4427 20.117V20.1189ZM12.1877 22.5002C14.9227 22.5002 17.5457 21.4137 19.4797 19.4797C21.4137 17.5457 22.5002 14.9227 22.5002 12.1877C22.5002 9.45261 21.4137 6.82958 19.4797 4.89561C17.5457 2.96164 14.9227 1.87515 12.1877 1.87515C9.45261 1.87515 6.82958 2.96164 4.89561 4.89561C2.96164 6.82958 1.87515 9.45261 1.87515 12.1877C1.87515 14.9227 2.96164 17.5457 4.89561 19.4797C6.82958 21.4137 9.45261 22.5002 12.1877 22.5002Z" fill="black"/>
</svg>
