<?xml version="1.0" encoding="UTF-8" standalone="no"?>
<!-- Generator: Adobe Illustrator 16.0.0, SVG Export Plug-In . SVG Version: 6.00 Build 0)  -->

<svg
   xmlns:dc="http://purl.org/dc/elements/1.1/"
   xmlns:cc="http://creativecommons.org/ns#"
   xmlns:rdf="http://www.w3.org/1999/02/22-rdf-syntax-ns#"
   xmlns:svg="http://www.w3.org/2000/svg"
   xmlns="http://www.w3.org/2000/svg"
   xmlns:xlink="http://www.w3.org/1999/xlink"
   xmlns:sodipodi="http://sodipodi.sourceforge.net/DTD/sodipodi-0.dtd"
   xmlns:inkscape="http://www.inkscape.org/namespaces/inkscape"
   version="1.1"
   id="Layer_1"
   x="0px"
   y="0px"
   width="285.417px"
   height="263.542px"
   viewBox="0 0 285.417 263.542"
   enable-background="new 0 0 285.417 263.542"
   xml:space="preserve"
   inkscape:version="0.91 r13725"
   sodipodi:docname="scarpa.svg"><metadata
     id="metadata93"><rdf:RDF><cc:Work
         rdf:about=""><dc:format>image/svg+xml</dc:format><dc:type
           rdf:resource="http://purl.org/dc/dcmitype/StillImage" /></cc:Work></rdf:RDF></metadata><defs
     id="defs91"><defs
       id="defs4620"><rect
         height="300"
         width="300"
         y="-3.783"
         x="-3.4790001"
         id="SVGID_1_-3" /></defs><clipPath
       id="SVGID_2_-3"><use
         id="use4624"
         overflow="visible"
         xlink:href="#SVGID_1_-3"
         style="overflow:visible"
         x="0"
         y="0"
         width="100%"
         height="100%" /></clipPath><defs
       id="defs4628"><rect
         id="SVGID_3_-7"
         x="-3.4790001"
         y="-3.783"
         width="300"
         height="300" /></defs><clipPath
       id="SVGID_4_-7"><use
         height="100%"
         width="100%"
         y="0"
         x="0"
         style="overflow:visible"
         xlink:href="#SVGID_3_-7"
         overflow="visible"
         id="use4632" /></clipPath><defs
       id="defs4636"><rect
         height="300"
         width="300"
         y="-3.783"
         x="-3.4790001"
         id="SVGID_5_-7" /></defs><clipPath
       id="SVGID_6_-5"><use
         id="use4640"
         overflow="visible"
         xlink:href="#SVGID_5_-7"
         style="overflow:visible"
         x="0"
         y="0"
         width="100%"
         height="100%" /></clipPath></defs><sodipodi:namedview
     pagecolor="#ffffff"
     bordercolor="#666666"
     borderopacity="1"
     objecttolerance="10"
     gridtolerance="10"
     guidetolerance="10"
     inkscape:pageopacity="0"
     inkscape:pageshadow="2"
     inkscape:window-width="1440"
     inkscape:window-height="851"
     id="namedview89"
     showgrid="false"
     inkscape:zoom="2.6902734"
     inkscape:cx="142.7085"
     inkscape:cy="131.771"
     inkscape:window-x="0"
     inkscape:window-y="1"
     inkscape:window-maximized="1"
     inkscape:current-layer="Layer_1" /><g
     id="g4620"
     transform="matrix(-1.0302993,0,0,1.0302993,289.73764,3.1317129)"><path
       id="path4516"
       d="m 97.066406,46.367188 -3.664062,0.923828 c -3.50694,0.883045 -12.55841,5.042713 -14.671875,6.742187 -0.756546,0.60833 0.124768,2.149889 3.554687,6.21875 6.956036,8.251802 17.777314,22.887318 22.222654,30.054688 10.02348,16.161169 13.86965,26.657349 16.06055,43.828129 l 1.45312,11.38671 7.37696,8.02149 c 5.19258,5.64587 9.273,9.18989 13.77148,11.96289 7.56355,4.66242 22.51844,10.95016 35.57422,14.95703 5.15411,1.58182 9.65121,2.89246 9.99414,2.91406 0.34292,0.0205 2.60078,-1.07942 5.01758,-2.44336 6.39632,-3.60987 8.54175,-4.0814 22.06641,-4.85156 13.49664,-0.76858 19.55425,-2.27618 27.69921,-6.89258 l 4.68164,-2.65429 -9.16406,-3.86719 c -8.31127,-3.50818 -19.91351,-7.77539 -21.14062,-7.77539 -0.26866,0 -0.9341,2.79898 -1.47852,6.2207 -1.05413,6.62529 -1.97295,8.44727 -4.26562,8.44727 -2.66587,0 -3.41676,-1.91573 -2.37305,-6.06055 0.52351,-2.07876 0.81206,-3.91913 0.64258,-4.08789 -0.16957,-0.16878 -2.50817,1.3666 -5.19727,3.41016 -6.56973,4.99259 -12.44365,7.70931 -14.40039,6.66211 -1.94843,-1.04282 -1.91264,-3.7552 0.0586,-4.38086 1.97527,-0.62691 10.24992,-6.12889 13.83007,-9.19727 l 2.7461,-2.35352 -4.87696,0.35157 c -6.6805,0.48322 -12.63526,-1.40738 -20.05664,-6.3711 -14.9394,-9.99208 -28.84878,-30.81053 -30.38086,-45.46875 -1.21764,-11.649715 6.81431,-25.006212 17.32422,-28.806638 1.51434,-0.547586 2.75391,-1.295054 2.75391,-1.662109 0,-1.11955 -3.76099,-6.636296 -5.82227,-8.541015 -4.79906,-4.434572 -11.51253,-5.202244 -29.8457,-3.41211 -16.15791,1.577746 -27.7014,-1.486533 -35.6875,-9.472656 l -3.802734,-3.802734 z"
       style="fill:#92c9d2;fill-opacity:1;stroke:#92c9d2;stroke-width:2.39717007;stroke-opacity:1"
       inkscape:connector-curvature="0" /><path
       inkscape:connector-curvature="0"
       id="path4514"
       d="m 96.230469,54.232422 c 1.150585,-0.101781 2.912525,0.759111 4.953121,2.550781 4.33128,3.802919 12.41864,7.298056 18.07032,7.810547 2.68618,0.243553 12.39612,-0.01533 21.57812,-0.576172 18.5644,-1.133885 20.79883,-0.932628 20.79883,1.884766 0,1.861882 -0.11953,1.883756 -16.09375,2.84375 -30.50626,1.833356 -35.12922,1.104002 -46.447266,-7.322266 -3.144584,-2.341148 -4.279297,-3.717289 -4.279297,-5.195312 0,-1.255578 0.525022,-1.916932 1.419922,-1.996094 z"
       style="fill:#f9f9f9;fill-opacity:1;stroke:#f9f9f9;stroke-width:1;stroke-miterlimit:4;stroke-dasharray:none;stroke-opacity:1" /><path
       id="path4512"
       d="m 72.59375,57.974609 -3.53125,2.53711 -3.53125,2.535156 1.650391,2.316406 c 2.660595,3.736469 7.053269,13.818964 9.042968,20.757813 2.594458,9.047902 2.631162,27.525646 0.07031,35.205076 l -1.714844,5.14063 1.763672,0.66797 c 0.969463,0.36799 7.629839,2.542 14.800781,4.83007 7.169781,2.28771 15.235362,5.23706 17.925782,6.55469 l 0.002,0 c 5.85814,2.86974 6.11242,2.91541 6.10742,1.09375 -0.006,-2.77698 -2.49919,-16.97232 -3.75586,-21.39062 C 107.81136,105.52147 94.844075,84.690293 77.832031,64.263672 L 72.59375,57.974609 Z"
       style="fill:#92c9d2;fill-opacity:1;stroke:#92c9d2;stroke-width:2.39717007;stroke-opacity:1"
       inkscape:connector-curvature="0" /><path
       id="path4510"
       d="m 173.71094,77.625 c -1.78782,-0.0278 -6.77831,2.966431 -9.34375,5.691406 -6.60348,7.014192 -8.33334,16.021151 -4.94727,25.757814 4.79463,13.78694 18.88323,30.48857 30.63672,36.3164 4.79482,2.37748 6.95798,2.98243 10.64258,2.98243 2.54323,0 5.25362,-0.46054 6.02344,-1.02344 1.29242,-0.94504 1.22012,-1.23935 -0.94922,-3.83789 l -2.34961,-2.81445 -2.625,2.20898 c -3.00241,2.52635 -5.38473,2.79841 -7.52735,0.85937 -2.44005,-2.20825 -1.84709,-5.09144 1.72657,-8.39062 l 3.21875,-2.9707 -1.79102,-2.17578 -1.79297,-2.17383 -4.54297,2.85937 c -3.87716,2.43965 -4.86165,2.73846 -6.70117,2.03906 -2.27867,-0.86636 -3.50234,-3.76377 -2.68164,-6.3496 0.26476,-0.83412 2.47704,-2.72691 4.91602,-4.20508 l 4.43554,-2.6875 -1.27929,-2.68164 -1.2793,-2.68164 -4.91016,1.99414 c -5.61504,2.2816 -8.34391,2.00182 -9.70898,-0.99414 -1.49909,-3.29014 0.1476,-5.57002 5.58398,-7.73047 2.61795,-1.04039 4.8399,-1.9405 4.9375,-2 0.0975,-0.0594 -0.22513,-1.41752 -0.71679,-3.01953 l -0.89453,-2.914066 -4.17188,1.111326 c -2.29491,0.61109 -4.97086,1.1161 -5.94726,1.1211 -2.46619,0.0134 -4.33594,-2.108885 -4.33594,-4.919926 0,-2.854766 1.97374,-4.275491 7.80859,-5.621094 l 4.14258,-0.955078 -2.19922,-6.230469 c -1.20945,-3.426514 -2.5874,-6.359125 -3.0625,-6.517578 -0.089,-0.02968 -0.19526,-0.04502 -0.31445,-0.04687 z"
       style="fill:#92c9d2;fill-opacity:1;stroke:#92c9d2;stroke-width:2.39717007;stroke-opacity:1"
       inkscape:connector-curvature="0" /><path
       inkscape:connector-curvature="0"
       id="path4508"
       d="m 84.269531,81.644531 c 0.179874,0.0064 0.375123,0.02464 0.585938,0.05469 2.393095,0.341117 8.467375,9.128925 13.699221,19.818359 4.31829,8.82288 6.7294,16.82354 6.32617,20.99023 -0.43276,4.47189 -4.73633,3.52598 -4.73633,-1.04101 0,-5.93425 -5.474915,-18.55107 -13.068358,-30.115236 -4.708394,-7.170519 -5.504754,-9.802301 -2.806641,-9.707031 z"
       style="fill:#f9f9f9;fill-opacity:1;stroke:#f9f9f9;stroke-width:1;stroke-miterlimit:4;stroke-dasharray:none;stroke-opacity:1" /><path
       inkscape:connector-curvature="0"
       id="path4506"
       d="m 141.35847,94.493525 c 1.30501,0.04877 2.23496,2.086864 2.72851,6.037105 1.3329,10.66819 7.21084,24.12731 13.84961,31.71289 3.88461,4.43864 4.50975,6.30207 2.39063,7.11524 -2.24037,0.85972 -2.62123,0.60549 -6.87305,-4.59766 -7.26438,-8.88976 -12.93743,-22.39456 -14.30664,-34.05078 -0.42382,-3.607787 -0.26787,-4.727301 0.7832,-5.599607 0.51645,-0.428614 0.99273,-0.633444 1.42774,-0.617188 z"
       style="fill:#f9f9f9;fill-opacity:1;stroke:#f9f9f9;stroke-width:1;stroke-miterlimit:4;stroke-dasharray:none;stroke-opacity:1" /><path
       inkscape:connector-curvature="0"
       id="path3650"
       d="m 166.46187,142.33265 c 1.3332,0.0447 3.44902,1.42323 6.86718,4.3164 2.8733,2.43201 6.81834,5.21789 8.76758,6.19141 2.75341,1.37511 3.48909,2.16132 3.29492,3.52344 -0.39867,2.79726 -3.15407,2.49095 -8.42578,-0.9336 -7.42957,-4.82629 -12.84121,-10.06174 -12.17187,-11.77734 0.34864,-0.89357 0.86804,-1.34713 1.66797,-1.32031 z"
       style="fill:#f9f9f9;fill-opacity:1;stroke:#f9f9f9;stroke-width:0.89999998;stroke-miterlimit:4;stroke-dasharray:none;stroke-opacity:1" /><path
       sodipodi:nodetypes="ccssscsccccccsccsssccccc"
       inkscape:connector-curvature="0"
       id="path3648"
       d="m 74.490234,126.58789 -2.470703,5.28125 c -1.35898,2.90406 -2.470703,5.56784 -2.470703,5.92188 0,0.35401 1.009683,1.01873 2.242188,1.47656 22.44897,8.33887 35.954904,14.42944 40.355464,18.19726 1.44568,1.23783 2.90409,2.26401 3.24024,2.28321 0.71119,0.0385 0.81411,-14.20431 0.12109,-16.78711 -0.65114,-2.42678 -8.76137,-6.01108 -26.474607,-11.70117 z m 47.619146,19.03125 -0.5586,10.08008 -0.56055,10.08008 3.72852,3.3164 c 12.7784,11.37079 30.28307,19.78381 46.69141,22.43946 3.36139,0.54404 6.66169,1.09667 7.33398,1.22851 4.22736,0.82825 5.51632,0.40183 6.58398,-2.17578 0.59328,-1.43226 2.1479,-3.82006 3.45313,-5.30664 1.30523,-1.48661 1.84745,-2.50236 1.20508,-2.25586 -1.66424,0.63861 -18.85891,-4.71882 -30.51953,-9.50977 -1.17804,-0.48401 -2.22783,-0.94657 -3.3086,-1.41406 l -8.96147,-2.97368 -5.57564,-4.7021 c -4.32389,-2.94859 -8.03246,-6.31792 -12.17773,-10.82812 z"
       style="fill:#85acca;fill-opacity:1;stroke:#85acca;stroke-width:2.39717007;stroke-opacity:1" /><path
       sodipodi:nodetypes="ccssssc"
       inkscape:connector-curvature="0"
       id="path4500"
       d="m 269.39258,190.80469 c -27.60709,-0.31755 -57.65811,-0.20881 -73.16016,-4.87696 -0.83869,0.62062 -1.68603,1.19775 -2.48828,2 -6.12408,6.1241 -5.94914,6.21332 15.15039,7.6836 5.6023,0.39038 17.88696,0.58259 27.29883,0.42773 17.83192,-0.29336 25.64758,0.6499 32.77344,-2.50221 0.79037,-0.34962 -0.0632,-2.46424 0.42578,-2.73216 z"
       style="fill:#d68d3a;fill-opacity:1;stroke:#d68d3a;stroke-width:2.39717007;stroke-opacity:1" /><path
       id="path4495"
       d="m 253.6543,169.56055 c -0.36478,0 -2.97571,1.44435 -5.80274,3.20898 -8.57834,5.35456 -16.32684,7.48522 -29.99414,8.24805 -12.301,0.68656 -17.46521,1.83199 -21.625,4.91015 l 73.16016,4.87696 c 1.64271,-0.9001 2.24804,-1.6531 2.24804,-3.90039 10e-6,-4.18431 -3.45611,-8.29184 -11.26367,-13.38868 -3.33211,-2.17521 -6.35785,-3.95507 -6.72265,-3.95507 z"
       style="fill:#e59d48;fill-opacity:1;stroke:#e59d48;stroke-width:2.39717007;stroke-opacity:1"
       inkscape:connector-curvature="0" /><path
       sodipodi:nodetypes="ccssssc"
       inkscape:connector-curvature="0"
       id="path4493"
       d="M 69.490234,123.60547 C 57.742973,111.86324 48.979285,99.014929 42.496094,85.996094 41.06023,87.729185 39.559613,89.523375 38.75,90.705078 c -4.996805,7.29327 -5.23272,5.849337 2.914062,17.740232 6.897354,10.0672 15.747525,21.19157 19.435547,24.42969 2.854454,2.50625 2.951283,2.52955 4.052735,0.95703 1.151615,-1.64415 2.82165,-5.84625 4.33789,-10.22656 z"
       style="fill:#d68d3a;fill-opacity:1;stroke:#d68d3a;stroke-width:2.39717007;stroke-opacity:1" /><path
       id="path3646"
       d="M 61.095703,66.882812 C 59.75826,66.879755 48.934591,78.224806 42.496094,85.996094 l 26.99414,37.609376 c 1.058148,-3.05692 2.121568,-6.27367 2.546875,-8.46289 1.60536,-8.26362 0.640109,-22.836001 -2.035156,-30.73633 -2.602057,-7.684105 -7.601159,-17.521038 -8.90625,-17.523438 z"
       style="fill:#e59d48;fill-opacity:1;stroke:#e59d48;stroke-width:2.39717007;stroke-opacity:1"
       inkscape:connector-curvature="0" /><path
       sodipodi:nodetypes="ccccccccccccccc"
       inkscape:connector-curvature="0"
       id="path4518"
       d="m 13.00983,114.85822 c 7.166883,27.21136 52.082855,42.36266 82.891205,59.1018 18.081355,10.88853 51.256675,32.7491 56.871545,33.45385 3.31805,1.64055 61.62411,5.72912 64.30573,4.46051 2.05761,0.61829 38.45502,-5.57673 50.61435,-14.14016 l -10.09802,14.51187 -33.82556,6.31906 -55.75641,0 -30.85189,-9.29274 L 110.76941,194.03233 84.006333,179.53566 52.411031,166.52583 29.736755,150.91403 12.266411,128.61147 Z"
       style="fill:#e6e6e6;fill-rule:evenodd;stroke:none;stroke-width:1px;stroke-linecap:butt;stroke-linejoin:miter;stroke-opacity:1" /><path
       style="fill:#014263;fill-opacity:1;stroke:#014263;stroke-width:3;stroke-miterlimit:4;stroke-dasharray:none;stroke-opacity:1"
       d="m 103.57085,221.11738 c -37.85484,-0.2239 -39.7254,-0.30509 -39.7254,-1.72496 0,-1.40445 1.62279,-1.52102 28.2465,-2.02946 15.53558,-0.29665 34.51211,-0.54387 42.17004,-0.54934 l 13.92355,-0.01 -6.36518,-2.77887 c -7.79912,-3.40492 -14.13228,-7.1398 -31.29716,-18.45708 C 94.41603,184.94818 86.28759,180.92195 68.73475,174.86916 56.79439,170.75174 43.05226,164.78209 41.86434,163.19653 c -0.2354,-0.31425 -2.62826,-2.1909 -5.31736,-4.17031 -12.97933,-9.55392 -22.25642,-20.05389 -25.58969,-28.96287 -4.64665,-12.41926 0.23085,-23.42222 14.0559,-31.708042 3.45078,-2.068182 5.84358,-4.38404 8.68138,-8.402249 9.19111,-13.01426 21.5513,-25.385287 34.63273,-34.663078 7.22385,-5.123399 20.12237,-11.111386 27.61561,-12.820233 3.05671,-0.697097 3.31898,-0.581098 7.38779,3.266983 8.59036,8.124417 17.3612,10.371308 34.60936,8.866173 20.44455,-1.784045 27.10521,-0.290728 33.86137,7.591814 4.86992,5.68182 11.98535,22.992887 10.76161,26.18189 -1.10456,2.87845 -2.86591,1.261343 -4.54668,-4.174383 -2.41822,-7.820672 -2.5253,-7.935304 -6.26084,-6.702464 -4.34729,1.43473 -10.42143,7.391075 -12.52583,12.282908 -3.60403,8.377773 -2.91139,15.456711 2.5793,26.360981 10.84528,21.53833 31.29851,36.49912 44.11575,32.26907 3.51691,-1.16071 3.61948,-1.73974 0.93214,-5.26301 -2.4437,-3.20386 -2.47072,-3.45003 -0.49449,-4.50768 1.33024,-0.71191 2.09527,-0.0683 5.55484,4.67328 l 4.01214,5.49892 9.72417,3.5417 c 21.5269,7.84044 37.11205,16.02076 44.7729,23.50034 6.91071,6.74717 7.42287,11.56886 2.30215,21.67413 -4.00375,7.90103 -10.79707,13.73562 -20.03691,17.20917 l -4.88318,1.83572 4.69783,0.48486 c 5.22971,0.53977 7.02035,1.60917 5.40324,3.22702 -1.05264,1.05312 -61.59945,1.37895 -154.33872,0.83057 z m 115.1018,-4.32198 c 18.54616,-1.41457 34.95426,-5.51963 41.60142,-10.40803 3.78439,-2.78304 8.56684,-8.55996 7.40661,-8.94669 -0.44815,-0.14935 -2.74586,0.30185 -5.10605,1.00276 -10.87306,3.22894 -35.75371,3.52834 -67.12605,0.80777 -26.03217,-2.25749 -38.66413,-5.18822 -52.55978,-12.19438 -9.38317,-4.73098 -16.75284,-10.09647 -26.64572,-19.39948 -9.52367,-8.9558 -14.15766,-11.58732 -33.26533,-18.89035 -15.31586,-5.85382 -20.70223,-8.67763 -26.28519,-13.78013 -4.7409,-4.33296 -16.75264,-19.92993 -22.40354,-29.09059 -1.89542,-3.07262 -3.74759,-5.58972 -4.11597,-5.59358 -1.43978,-0.0144 -7.96306,4.33247 -11.16865,7.4434 -4.25004,4.12452 -5.68362,7.53738 -5.67353,13.50662 0.0144,8.59287 6.27409,18.49939 17.7755,28.13179 13.1385,11.00347 21.50069,15.53939 40.99436,22.23678 16.5579,5.68872 25.76268,10.44571 45.28647,23.40376 8.42359,5.59077 17.59039,11.31246 20.37065,12.71483 10.77216,5.43352 22.69485,7.71402 47.09727,9.00849 18.13165,0.96182 21.75813,0.96685 33.81753,0.047 z m 41.96632,-22.292 c 6.0186,-1.70508 10.22839,-3.74615 11.26845,-5.46334 0.433,-0.71496 0.52387,-2.3651 0.20184,-3.66695 -0.74533,-3.0138 -8.52973,-10.62647 -14.21249,-13.89899 l -4.37188,-2.51762 -5.59128,3.44725 c -9.1309,5.62958 -16.87977,7.74964 -31.23975,8.54701 -12.78617,0.71002 -17.18956,1.73641 -21.6744,5.0522 -3.52674,2.60745 -6.26841,7.13827 -4.84991,8.01494 0.58741,0.36303 5.31573,0.90189 10.5074,1.19744 5.19167,0.29554 9.8061,0.6834 10.25428,0.86187 0.4482,0.17835 10.71568,0.20904 22.81664,0.0678 17.66475,-0.20591 22.96554,-0.5296 26.89105,-1.64172 z m -75.05909,-3.25855 c 1.69543,-4.05769 6.55363,-9.06401 10.67645,-11.00198 5.26612,-2.47536 9.55399,-3.25034 22.58191,-4.08144 12.50479,-0.79771 18.50944,-2.38914 26.34859,-6.9832 3.50956,-2.05674 3.76574,-2.39705 2.5008,-3.32199 -1.81091,-1.32418 -25.83727,-10.85767 -28.91469,-11.47317 -2.26007,-0.45201 -2.35414,-0.3393 -2.90815,3.4845 -1.02033,7.04241 -2.22838,10.87807 -3.42606,10.87807 -1.81405,0 -2.12693,-1.97985 -1.09692,-6.94137 0.52479,-2.52791 0.75559,-4.79477 0.51288,-5.03748 -0.24269,-0.24269 -2.51439,1.40647 -5.04823,3.66484 -2.53383,2.25835 -6.80487,5.27759 -9.49121,6.70939 -4.42846,2.36035 -5.00306,2.48445 -6.15754,1.32998 -1.04876,-1.04877 -1.08843,-1.49608 -0.22485,-2.53652 0.57661,-0.6948 1.43629,-1.26324 1.91038,-1.26324 1.55041,0 10.69195,-6.37676 14.004,-9.76861 l 3.23774,-3.31574 -2.66283,0.92828 c -4.68059,1.63166 -13.06671,0.62197 -18.95406,-2.28208 -14.01692,-6.91411 -28.16687,-23.75004 -33.95891,-40.40505 -5.03964,-14.491512 1.16162,-29.660396 14.65958,-35.858711 2.12888,-0.977566 3.87069,-2.061878 3.87069,-2.409539 0,-1.371877 -4.03844,-6.918377 -6.80761,-9.349706 -5.14384,-4.516389 -8.67787,-4.932801 -28.26747,-3.330748 -18.2295,1.4908 -27.1811,-0.697385 -35.78819,-8.748304 -3.90734,-3.65487 -4.26749,-3.811093 -7.8539,-3.406858 -3.98757,0.449445 -17.43867,6.637188 -17.43867,8.022081 0,0.450836 2.26456,3.450894 5.03238,6.666746 10.75294,12.493642 22.35162,29.389783 28.3992,41.369979 7.22651,14.31561 9.89792,27.3197 10.1034,49.18199 l 0.13712,14.59217 6.48101,5.22742 c 14.40709,11.6204 29.01679,17.95758 48.34098,20.96867 3.86805,0.60272 7.48626,1.13136 8.04049,1.17478 0.5542,0.0434 1.52697,-1.16402 2.16172,-2.68316 z m -68.76723,-39.16251 c 0,-10.52674 -1.91006,-25.87314 -4.16352,-33.45182 C 110.22007,110.4613 104.71679,99.797637 96.87879,88.072527 90.17549,78.04483 78.09955,62.474875 74.32837,58.997444 l -1.92667,-1.776614 -3.75157,2.785056 -3.75158,2.785056 4.24956,8.477472 c 10.19826,20.344494 10.85048,41.551106 1.87672,61.019916 -2.1645,4.69593 -2.39776,5.74122 -1.42121,6.36827 0.64257,0.4126 5.93537,2.597 11.76177,4.85422 5.82637,2.2572 13.31268,5.26747 16.63624,6.6895 6.11916,2.61812 14.89373,7.85811 15.90867,9.50029 0.30463,0.49293 1.0823,0.89623 1.72812,0.89623 0.94746,0 1.17423,-1.64429 1.17423,-8.5145 z M 67.76212,129.73302 c 8.4092,-18.80681 7.47852,-38.491578 -2.7392,-57.93591 -1.65501,-3.149474 -3.32087,-5.726336 -3.70195,-5.726336 -1.32024,0 -15.84273,15.104137 -20.47543,21.295475 -7.53864,10.075042 -7.48569,9.125451 -1.05008,18.831541 10.11925,15.26168 21.75013,29.13777 24.42311,29.13777 0.57115,0 2.16575,-2.52115 3.54355,-5.60254 z m 129.67731,-0.18818 c -0.81708,-1.52673 -0.73819,-1.99466 0.48734,-2.8908 1.25413,-0.91703 1.62857,-0.83174 2.63092,0.59934 0.6428,0.91771 1.03963,1.74862 0.88187,1.84645 -0.15773,0.0978 -0.90299,0.64786 -1.65604,1.22224 -1.16459,0.88827 -1.51491,0.77211 -2.34409,-0.77723 z m -7.98155,-13.06069 c -0.90579,-1.45039 -0.9045,-1.854 0.007,-2.43217 1.81188,-1.14837 2.99071,-0.81382 3.57064,1.01335 0.34478,1.08635 0.13759,1.99255 -0.55624,2.43215 -1.58106,1.0018 -1.812,0.92437 -3.02209,-1.01333 z m -5.84523,-14.20424 c -1.02199,-2.688022 -1.06358,-2.538654 0.84569,-3.037937 1.83765,-0.480536 3.67968,2.015257 2.92975,3.969547 -0.71845,1.87228 -2.91553,1.33014 -3.77544,-0.93161 z"
       id="path3638"
       inkscape:connector-curvature="0" /><path
       sodipodi:nodetypes="cc"
       inkscape:connector-curvature="0"
       id="path4582"
       d="M 95.837431,44.244178 C 98.867804,36.563017 95.364433,32.39803 87.935669,30.345517"
       style="fill:none;fill-rule:evenodd;stroke:#014263;stroke-width:7;stroke-linecap:round;stroke-linejoin:miter;stroke-miterlimit:4;stroke-dasharray:none;stroke-opacity:1" /></g></svg>